<svg xmlns="http://www.w3.org/2000/svg" xmlns:xlink="http://www.w3.org/1999/xlink" viewBox="0 0 641 706"><defs><style>.cls-1{fill:#51944b;}.cls-2{fill:#63ae59;}.cls-3{clip-path:url(#clip-path);}.cls-4{fill:#4b8945;}.cls-5{fill:#437942;}.cls-6{fill:#407844;}.cls-7{clip-path:url(#clip-path-2);}.cls-8{fill:#4b8c4b;}.cls-9{fill:#92c984;}.cls-10{fill:#e3eddd;}.cls-11{fill:#4e854f;}.cls-12{fill:#385c3b;}.cls-13{fill:#3b4e34;}.cls-14{fill:#3a4d33;}.cls-15{fill:#e4b28d;}.cls-16{fill:#e77869;}.cls-17{fill:#e3b18c;}.cls-18{fill:#fff;}</style><clipPath id="clip-path"><path id="_Clipping_Path_" data-name="&lt;Clipping Path&gt;" class="cls-1" d="M530,159c-2-1.69-19-16.08-34-26-4.11-2.72-9.95-6.36-18-7a31.45,31.45,0,0,0-5,0l5.67,571.64L616,666.91a24.9,24.9,0,0,0,19.28-27.26l-56.55-471a15,15,0,0,0-16.49-13.13Z"/></clipPath><clipPath id="clip-path-2"><path id="_Clipping_Path_2" data-name="&lt;Clipping Path&gt;" class="cls-2" d="M82.07,174.27,21.68,631.08a40,40,0,0,0,37.56,45.23l409.13,21.87a48,48,0,0,0,50.54-49.86L499,150.21a25.51,25.51,0,0,0-26.23-24.48L124.58,135.9A44.18,44.18,0,0,0,82.07,174.27Z"/></clipPath></defs><title>logo-ditoekoe</title><g id="Layer_2" data-name="Layer 2"><g id="Layer_1-2" data-name="Layer 1"><path id="_Clipping_Path_3" data-name="&lt;Clipping Path&gt;" class="cls-1" d="M530,159c-2-1.69-19-16.08-34-26-4.11-2.72-9.95-6.36-18-7a31.45,31.45,0,0,0-5,0l5.67,571.64L616,666.91a24.9,24.9,0,0,0,19.28-27.26l-56.55-471a15,15,0,0,0-16.49-13.13Z"/><g class="cls-3"><polygon class="cls-4" points="560 607 637 659 641 637 583 148 524.43 154.37 560 607"/><path class="cls-5" d="M528,142l2,17,39,453a344.81,344.81,0,0,1-25,38c-12.46,16.44-19.54,25.62-32,34a96.29,96.29,0,0,1-33,14l11-580Z"/></g><path class="cls-6" d="M258,182.81V116.23A106.52,106.52,0,0,1,364.5,9.7h0A106.52,106.52,0,0,1,471,116.23v70.86A10.94,10.94,0,0,1,460.09,198h0a10.94,10.94,0,0,1-10.94-10.94V113.85a83.22,83.22,0,0,0-83.22-83.22h0a83.22,83.22,0,0,0-83.22,83.22v69a12.36,12.36,0,0,1-12.36,12.36h0A12.36,12.36,0,0,1,258,182.81Z"/><path id="_Clipping_Path_4" data-name="&lt;Clipping Path&gt;" class="cls-2" d="M82.07,174.27,21.68,631.08a40,40,0,0,0,37.56,45.23l409.13,21.87a48,48,0,0,0,50.54-49.86L499,150.21a25.51,25.51,0,0,0-26.23-24.48L124.58,135.9A44.18,44.18,0,0,0,82.07,174.27Z"/><g class="cls-7"><path class="cls-8" d="M0,645a654.56,654.56,0,0,0,137-14c66.46-14,231.23-48.69,329-190,20.1-29,48.2-78.26,63-150V706H8Z"/><path class="cls-9" d="M23.42,621.7,100,186.17a37,37,0,0,1,33.46-30.49L523,124H64L23.42,621.7"/></g><circle class="cls-10" cx="193.5" cy="188.5" r="21"/><circle class="cls-10" cx="393" cy="189" r="21"/><path class="cls-11" d="M179,182V112A112,112,0,0,1,291,0h0A112,112,0,0,1,403,112v74.5A11.5,11.5,0,0,1,391.5,198h0A11.5,11.5,0,0,1,380,186.5v-77A87.5,87.5,0,0,0,292.5,22h0A87.5,87.5,0,0,0,205,109.5V182a13,13,0,0,1-13,13h0A13,13,0,0,1,179,182Z"/><path class="cls-12" d="M312.71,378a120.83,120.83,0,0,0,14.21-5.27c.65-.27,13.36-5.46,20.58.82,6.53,5.67,4,16.74,2.12,25.09-.5,2.19-2.45,7.21-8.19,16.17a5,5,0,0,1-2.09,2c-1.38.51-2.39-.36-3.43-1-11.32-6.85-23.68-9.37-36.81-9.66A92.42,92.42,0,0,0,247,420c-5.77,3.58-10.08,5.9-13.05,10.82a23.77,23.77,0,0,0-2.48,5.68,62.57,62.57,0,0,1-6-4.36,61.55,61.55,0,0,1-17-21.64c-3.23-7.49-12.79-29.64-4.1-37.36a16.23,16.23,0,0,1,12.23-3.37,40,40,0,0,1,8.88,2.7c3.5,1.42,6.11,2.43,6.29,2.51C235.44,376.59,271.15,390.43,312.71,378Z"/><path class="cls-13" d="M411.7,312.71c-1.13,4.61-4.06,7.27-8.64,8.49-5.67,1.51-10.53-.54-12.9-5.93a41.46,41.46,0,0,1-1.81-5.51c-3.46-12.29-18.52-18.08-30.05-12.2a20.05,20.05,0,0,0-10.84,12.93,12.94,12.94,0,0,1-7,8.76c-7.17,3.4-15.87-2-16.16-10a18.25,18.25,0,0,1,1.81-8c6.19-14.5,16.38-24.49,32.13-27.92a44.36,44.36,0,0,1,36.25,7.22,50.6,50.6,0,0,1,10.43,10.6c4.44,3.33,6.09,8.07,6.68,13.33l.13,1.62A14.75,14.75,0,0,1,411.7,312.71Z"/><path class="cls-14" d="M234.59,306.88a11,11,0,0,1-5.94,10.79c-4.21,2.38-8.5,1.8-12.52-.82-2.22-1.45-3.26-3.69-4-6.09-.55-1.7-.92-3.47-1.56-5.13-3.14-8.3-12.68-13.39-21.28-12.88-7.84.46-16.6,6.7-18.7,14.18-1.05,3.74-2.6,7.21-6.26,9.41-7.3,4.39-16.94-2-17.08-9.46-.08-4.36,1.37-8.2,3.25-11.86,6.48-12.57,16.22-21.3,30.42-24,17.65-3.41,32.68,1,44.44,15.26,4,4.81,6.46,10.23,8.59,15.95A13.21,13.21,0,0,1,234.59,306.88Z"/><path class="cls-15" d="M132,339.26c11.2.09,19.91,1.85,27.78,6.73a21.62,21.62,0,0,1,6.23,6c3.23,4.6,1.87,11.18-3.06,15.08a29.06,29.06,0,0,1-9.08,5c-14.43,4.65-28.57,4-42.31-2.73A23,23,0,0,1,104,363c-3.44-4.2-3.13-9.55.54-13.62a25.76,25.76,0,0,1,10-6.45C120.79,340.44,127.25,339,132,339.26Z"/><path class="cls-16" d="M228.5,434.5a85.06,85.06,0,0,1,12.19-11.41,90.84,90.84,0,0,1,36.41-16.3c20.2-4.14,36.56-.37,47.14,2.19a126.76,126.76,0,0,1,17.26,5.51,77.9,77.9,0,0,1-7.32,10,80.24,80.24,0,0,1-19.77,16.43,75.4,75.4,0,0,1-41.62,10.59,76.63,76.63,0,0,1-41.13-14.63C230.33,435.92,229.25,435.09,228.5,434.5Z"/><path class="cls-17" d="M425.62,381.81c-9.9-.13-17.55-1.74-24.82-5.09a25.74,25.74,0,0,1-8.51-6.52c-3.89-4.4-3.14-12.24,1.6-15.71,10.14-7.43,21.7-9.23,33.87-8.2a51,51,0,0,1,20.82,6.53,17.61,17.61,0,0,1,6.85,7c2.06,3.72,1.26,8.4-1.85,11.92-3.83,4.33-8.85,6.64-14.3,7.95C434.19,381,429,382,425.62,381.81Z"/><path class="cls-18" d="M111,617.92c-3.68,5.49-8.39,7.79-15.27,7.49a21.49,21.49,0,0,1-16.87-9.73c-3.5-5.59-5.54-13.42-5.35-21,.42-17,10.66-29.55,23.7-29,6.88.3,11.46,3.12,14.86,8.91l.67-27.06,14.16.62L125,624.28l-14.16-.62ZM87.69,595.25c-.26,10.34,4.42,17.76,11.49,18.07s12.11-6.58,12.36-16.82c.27-10.87-4.31-18.18-11.48-18.49S87.95,584.7,87.69,595.25Z"/><path class="cls-18" d="M150.77,562.23l-14.16-.62.33-13.06,14.16.62Zm-1.57,63.1L135,624.72l1.41-56.42,14.16.62Z"/><path class="cls-18" d="M184.51,581.28l-7.89-.34-.77,30.72c-.12,5,.76,6.2,4.5,6.37a19.55,19.55,0,0,0,3.24-.17l-.26,10.24a25,25,0,0,1-8.22.79c-9.3-.41-13.74-5-13.52-13.87l.86-34.69-7-.3.24-9.72,7,.3.38-15.15,14.16.62-.38,15.15,7.89.34Z"/><path class="cls-18" d="M240.37,602.23c-.45,18.18-11,29-27.73,28.28s-26.72-12.46-26.25-31.06,11-29.43,27.64-28.71C231.12,571.49,240.85,583.11,240.37,602.23Zm-39.83-2.16c-.27,10.87,4.71,18.3,12.39,18.64s13-6.75,13.29-17.3c.28-11.07-4.6-18.5-12.39-18.84S200.81,589.21,200.54,600.07Z"/><path class="cls-18" d="M257.48,606.43c.07,5.34.51,7.87,1.78,10a10.86,10.86,0,0,0,9.18,5.32c5.16.23,9.17-2.21,11-6.63l14,.61c-3.41,11-13.5,17.71-25.74,17.18-15.47-.68-24.7-12.17-24.25-30.24.47-18.91,10.37-30.19,26-29.51A24.59,24.59,0,0,1,292.5,590.6a49.09,49.09,0,0,1,1.75,14.93c0,.73,0,1.25-.16,2.5Zm22.19-8.76c-.5-8.39-4.23-13-10.7-13.33-6.27-.27-9.91,3.75-11,12.38Z"/><path class="cls-18" d="M333.23,576.89l16.08.7-19.14,20.5,19,36-16.58-.72-12.43-25.43L314.39,614l-.46,18.49-14.16-.62,1.9-76.16,14.16.62-1,41.69Z"/><path class="cls-18" d="M402.58,609.31c-.45,18.18-11,29-27.73,28.28s-26.72-12.46-26.25-31.06,11-29.43,27.64-28.71C393.32,578.58,403.05,590.19,402.58,609.31Zm-39.83-2.16c-.27,10.87,4.71,18.3,12.39,18.64s13-6.75,13.29-17.3c.28-11.07-4.6-18.5-12.39-18.84S363,596.29,362.75,607.16Z"/><path class="cls-18" d="M419.68,613.51c.07,5.34.51,7.87,1.78,10a10.86,10.86,0,0,0,9.18,5.32c5.16.23,9.17-2.21,11-6.63l14,.61c-3.41,11-13.5,17.71-25.74,17.18-15.47-.68-24.7-12.17-24.25-30.24.47-18.91,10.37-30.19,26-29.51a24.59,24.59,0,0,1,23.05,17.43,49.07,49.07,0,0,1,1.75,14.93c0,.73,0,1.25-.16,2.5Zm22.19-8.76c-.5-8.39-4.23-13-10.7-13.33-6.27-.27-9.91,3.75-11,12.38Z"/></g></g></svg>